<svg width="35.948608" height="39.589844" viewBox="0 0 35.9486 39.5898" fill="none" xmlns="http://www.w3.org/2000/svg" xmlns:xlink="http://www.w3.org/1999/xlink">
	<desc>
			Created with Pixso.
	</desc>
	<defs/>
	<path id="Vector" d="M9.71 0.38C3.29 1.61 6.1e-5 6.5 6.1e-5 14.89C-0.03 23.48 8.48 28.75 17.23 25.58L18.84 24.98C20.17 26.4 20.39 26.4 18.98 27.27C17.86 27.95 17.97 28.66 18.69 28.94C19.65 29.3 25.51 35.04 26.29 36.43C29.19 41.57 36.41 39.77 35.92 35.74C35.7 33.92 34.33 31.79 32.71 30.28C30.92 28.59 29.91 27.22 28.58 24.66C27.3 22.17 26.16 21.63 24.5 22.65C23.78 23.09 23.71 23.11 23.33 22.74C22.55 22.04 22.59 21.56 23.56 20.07C27.24 14.31 27.44 9.29 24.18 5.29C19.65 -0.28 15.77 1.73 18.42 3.46C24.86 7.67 24.52 16.21 17.65 22.65C13.84 26.24 6.17 24.32 4.19 19.29C1.07 11.3 6.21 0.74 14.54 2.43C17.41 3.19 18.55 -1.31 9.71 0.38ZM8.81 6.07C7.85 6.89 8.48 7.6 10.27 6.34C11.53 5.47 12.13 5.31 13.28 5.59C14.78 5.93 15.7 5.54 15.23 4.76C15.07 4.49 11.78 3.53 8.81 6.07ZM17.81 5.77C16.6 5.7 16.29 6.39 17.12 7.28C18.15 8.4 20.21 8.58 20.1 7.55C20.03 6.84 18.73 5.82 17.81 5.77ZM25.62 24.92C25.8 25.67 27.57 28.32 28.51 29.3C29.66 30.47 30.15 31.24 31.63 32.89C34.64 36.25 31.05 39.58 28.22 35.38C24.66 30.08 21.33 28.41 21.38 27.79C21.45 27.02 25.46 24.28 25.62 24.92Z" fill="#006B99" fill-opacity="1.000000" fill-rule="evenodd"/>
</svg>
