<svg width="40.463989" height="36.037842" viewBox="0 0 40.464 36.0378" fill="none" xmlns="http://www.w3.org/2000/svg" xmlns:xlink="http://www.w3.org/1999/xlink">
	<desc>
			Created with Pixso.
	</desc>
	<defs/>
	<path id="Vector" d="M8.47 0.16C5.99 0.57 7.66 2.25 9.71 2.54C11.43 2.79 14.73 2.79 21.81 2.76C30.45 2.74 34.15 2.83 34.7 3.08C36.06 3.71 36.66 6.14 37.04 12.72C37.18 15.06 37.47 18.56 37.69 20.5C38.35 26.74 37.73 27.35 29.88 27.67C26.85 27.79 22.91 28.03 21.15 28.2C12.89 29 7.76 28.86 4.89 27.69C2.51 26.72 2.63 25.94 2.56 24.31C2.39 21.16 2.46 14.72 2.77 8.86C3.03 3.95 3.34 2.98 4.89 2.25C5.85 1.81 5.51 1.3 4.32 1.35C2.53 1.45 1.15 2.06 0.88 4.9C0.55 8.4 -1.57 27.62 2.24 29.25C4.75 30.32 9.12 31.36 10.84 31.36C12.03 31.36 11.98 32.72 10.79 33.09C8.04 33.89 9.98 35.83 13.61 35.98C20.96 36.22 31.7 35.61 31.79 34.91C31.89 34.2 30.33 32.6 29.52 32.6C29.26 32.6 29.09 32.28 29.09 31.82C29.09 31.17 29.09 30.24 29.83 30.24C33.01 30.24 34.7 30.1 35.66 29.88C40.31 28.86 40.5 25.65 40.45 23.78C40.29 16.13 38.88 8.81 38.88 7.09C38.85 4.1 37.14 1.16 33.46 0.62C32.03 0.18 10.93 -0.25 8.47 0.16ZM20.93 15.03C20.65 14.72 17.88 11.58 17.11 10.78C16.16 9.78 15.18 10.1 13.13 12.02C12.08 13.02 10.43 14.5 9.45 15.35C6.06 18.26 5.8 19.58 8.59 19.58C9.55 19.58 10 19.24 12.84 16.27C16.52 12.43 16.18 12.46 19.38 15.62C21.53 17.73 21.27 17.75 24.75 14.98C27.76 12.14 29.48 10.25 31.65 8.03C33.8 5.85 30.5 4.85 28.76 6.36C26.71 8.08 20.96 15.01 20.93 15.03ZM28.66 13.89C28.23 15.01 28.45 22.47 28.93 22.93C30.1 24.12 30.81 21.57 30.74 16.51C30.69 13.72 29.36 12.04 28.66 13.89ZM14.85 16.93C14.11 18.92 14.73 24.36 16.23 24.1C17.73 23.83 16.71 17.83 16.37 16.95C16.16 16.32 15.08 16.3 14.85 16.93ZM24.56 17.49C24.15 18 23.75 21.76 24.01 22.78C24.46 24.61 26.35 23.8 26.35 21.79C26.35 18.41 25.49 16.34 24.56 17.49ZM10.98 20.09C10.62 20.45 10.76 23.17 11.19 23.76C11.96 24.82 12.63 24.14 12.63 22.27C12.6 20.33 11.79 19.24 10.98 20.09ZM19.21 20.09C18.59 20.72 19.02 23.32 19.79 23.68C21 24.24 21.41 22.71 20.67 20.28C20.55 19.84 19.57 19.72 19.21 20.09ZM25.37 30.66C26.33 30.92 25.97 31.8 26.06 32.6L15.04 32.8C15.04 32.72 15.23 30.8 15.23 30.92C15.99 30.9 22.98 30.61 23.94 30.54C24.32 30.49 24.99 30.56 25.37 30.66Z" fill="#006B99" fill-opacity="1.000000" fill-rule="evenodd"/>
</svg>
