<svg width="35.942749" height="33.811523" viewBox="0 0 35.9427 33.8115" fill="none" xmlns="http://www.w3.org/2000/svg" xmlns:xlink="http://www.w3.org/1999/xlink">
	<desc>
			Created with Pixso.
	</desc>
	<defs/>
	<path id="Vector" d="M26.85 0.37C25.05 1.18 24.08 2.76 23.94 5.1C23.76 8.23 23.05 9.3 22.24 7.68C19.28 1.85 9.14 0.21 8.11 5.4C7.99 5.96 7.97 5.96 6.68 5.96C1.01 5.92 -2.26 17.07 1.81 22.6C2.08 22.98 1.69 24.31 0.52 26.9C-0.14 28.35 -0.06 28.59 1.09 29.1C2.14 29.58 2.48 29.08 4.58 23.93C4.9 23.16 4.9 22.28 4.58 21.51C4.1 20.36 3.53 19.09 3.07 18.24C1.57 15.29 2.56 11.13 5.37 8.63C7.95 6.35 10.58 8.23 8.33 10.75C5.21 14.2 8.17 18.38 12.74 17.01C16.85 15.8 17.01 10.08 12.96 8.99C10.82 8.41 9.91 5.4 11.54 4.31C15.58 1.58 20.61 7.18 20.08 13.84C19.8 17.31 23.29 15.72 23.29 13.35C23.29 12.73 23.45 12.4 24.08 11.66C25.43 10.1 26.06 8.45 26.36 5.62C26.64 3 30.04 0.82 31.02 2.65C31.63 3.8 30.66 9.94 29.57 11.7C28.7 13.13 25.61 16.64 24.61 17.31C23.33 18.18 23.47 18.94 24.99 19.19C25.74 19.31 25.86 19.27 27.27 18.1C30.78 15.19 31.89 13.76 32.72 11.03C33.31 9.09 34.19 9.52 34.21 11.54C34.23 15.69 29.89 20.52 25.72 22.22C24.73 22.64 24.67 23.1 25.53 23.73C26.79 24.66 29.05 23.69 31.65 21.1C33.27 19.47 33.35 19.43 33.18 20.08C32.2 23.85 29.07 26.96 25.09 28.13C22.46 28.9 20 29.46 18.15 29.7C17.9 29.77 16.33 29.72 15.02 31.1C13.1 33.14 16.05 34.77 17.06 33.14C17.82 31.91 18.06 31.8 19.52 31.78C20.97 31.78 21.05 31.76 25.15 30.61C28.64 29.64 30.7 28.63 32.18 27.18C35.32 24.11 36.62 19.67 35 17.53C34.64 17.05 34.64 17.03 35.22 15.78C36.39 13.29 36.11 10 34.56 8.14C34.01 7.46 33.97 7.28 33.91 5.66C33.83 1.81 30.01 -1.06 26.85 0.37ZM12.65 10.2C14.29 11.03 13.32 15.33 11.4 15.8C10.72 15.98 7.73 14.44 10.07 11.21C11.14 9.72 11.46 9.58 12.65 10.2Z" fill="#000001" fill-opacity="1.000000" fill-rule="evenodd"/>
</svg>
