<svg width="8.441650" height="13.843506" viewBox="0 0 8.44165 13.8435" fill="none" xmlns="http://www.w3.org/2000/svg" xmlns:xlink="http://www.w3.org/1999/xlink">
	<desc>
			Created with Pixso.
	</desc>
	<defs/>
	<path id="Vector" d="M4.72 13.42C4.95 13.11 5.13 11.94 5.13 11.83C5.13 11.73 5.78 11.77 6.49 11.57C9.13 10.86 9.07 7.65 6.38 6.14C5.65 5.73 2.96 5.58 3.33 3.93C3.59 2.72 4.5 3.13 5.47 3.6C6.15 3.91 6.73 4.25 7.32 4.56C8.35 5.1 8.33 3.71 7.64 3.13C7.21 2.76 6.58 2.39 5.95 2.11C5.82 2.05 6.08 1.42 5.86 0.96C5.41 0.03 4.11 -0.38 4.11 0.42C4.11 0.53 3.92 1.4 3.92 1.4C3.89 1.4 1.6 0.33 0.73 2.89C0.3 4.17 0.84 6.03 2.46 6.53C3.76 6.94 6.12 7.35 5.95 8.69C5.71 10.56 2.55 9.28 2.53 9.28C0.28 8.72 -1.26 9.45 1.4 10.64C1.86 10.86 2.88 11.12 3.09 11.31C3.31 11.51 3.07 12.74 3.07 12.96C3.11 13.91 4.2 14.13 4.72 13.42Z" fill="#000001" fill-opacity="1.000000" fill-rule="nonzero"/>
</svg>
