<svg width="34.735229" height="44.927124" viewBox="0 0 34.7352 44.9271" fill="none" xmlns="http://www.w3.org/2000/svg" xmlns:xlink="http://www.w3.org/1999/xlink">
	<desc>
			Created with Pixso.
	</desc>
	<defs/>
	<path id="Vector" d="M20.06 1.11C15.32 3.52 4.64 15.4 1.16 22.06C-0.94 26.09 -0.69 26.32 6.1 26.7L10.94 26.98C2.16 42.35 3.05 40.71 2.98 40.87C1.05 44.17 3.67 46.37 6.43 43.79C6.46 43.76 30.21 25.32 34.46 19.19C34.95 18.5 34.82 17.71 33.74 16.91C31.97 15.61 29.59 15.2 20.91 14.48C19.55 14.38 18.93 14.22 19.04 14.02C19.68 12.46 22.14 5.9 23.32 3.34C24.7 0.34 24.57 -1.2 20.06 1.11ZM18.29 6.85C18.06 7.38 15.22 14.2 15.09 14.48C14.43 15.81 14.86 16.5 16.53 16.68C22.06 17.27 24.26 17.48 26.49 17.58C30.18 17.76 30.21 17.61 26.31 21.53C22.16 25.73 11.56 35.46 11.33 35.23C11.12 35.03 14.53 28.52 15.45 27.31C17.12 25.14 16.6 24.83 11.3 24.83C8.92 24.83 7.43 24.78 6.31 24.7C5.26 24.62 4.61 23.5 5.13 22.55C7.05 19.04 10.48 14.66 16.19 8.38C18.81 5.57 18.86 5.51 18.29 6.85Z" fill="#000001" fill-opacity="1.000000" fill-rule="evenodd"/>
</svg>
