<svg width="22.000000" height="21.866211" viewBox="0 0 22 21.8662" fill="none" xmlns="http://www.w3.org/2000/svg" xmlns:xlink="http://www.w3.org/1999/xlink">
	<desc>
			Created with Pixso.
	</desc>
	<defs/>
	<path id="Vector" d="M22 11C22 4.92 17.07 0 11 0C4.92 0 0 4.92 0 11C0 16.49 4.02 21.04 9.28 21.86L9.28 14.17L6.48 14.17L6.48 11L9.28 11L9.28 8.57C9.28 5.81 10.92 4.29 13.43 4.29C14.63 4.29 15.89 4.51 15.89 4.51L15.89 7.21L14.51 7.21C13.14 7.21 12.71 8.06 12.71 8.93L12.71 11L15.76 11L15.28 14.17L12.71 14.17L12.71 21.86C17.97 21.04 22 16.49 22 11Z" fill="#000000" fill-opacity="1.000000" fill-rule="nonzero"/>
</svg>
