<svg width="32.508881" height="41.061768" viewBox="0 0 32.5089 41.0618" fill="none" xmlns="http://www.w3.org/2000/svg" xmlns:xlink="http://www.w3.org/1999/xlink">
	<desc>
			Created with Pixso.
	</desc>
	<defs/>
	<path id="Vector" d="M12.26 0.17C11.81 0.35 11.59 0.6 11.64 0.87C11.71 1.3 2.54 13.7 0.19 21.22C-0.54 23.57 0.64 23.9 5.99 22.87C9.24 22.25 9.11 21.6 6.96 27.65C5.36 32.1 4.19 35.82 3.64 38.1C2.89 41.1 4.46 42.67 8.36 38.6C10.04 36.85 13.84 32.92 22.74 22.77C30.29 14.17 30.26 14.4 24.31 14.17L20.64 14.02C22.36 12.2 28.81 5.25 30.79 3.62C32.76 1.97 33.39 1.3 30.74 0.92C27.66 0.47 17.26 0.3 14.21 0.02C13.51 -0.05 12.64 0.02 12.26 0.17ZM27.09 2.7L25.79 3.77C22.61 6.37 16.34 13.85 16.34 15C16.34 16.25 18.44 16.12 23.86 16.12C15.86 25.4 9.61 32.62 9.46 32.62C9.41 32.62 9.99 30.97 10.76 28.92C13.66 21.15 13.81 19.7 11.76 19.95C8.21 20.37 4.74 20.85 4.26 21C3.84 21.12 4.11 20.45 5.71 17.45C8.56 12 9.71 10.42 14.71 2.1C24.24 2.52 24.14 2.52 27.09 2.7Z" fill="#006B99" fill-opacity="1.000000" fill-rule="evenodd"/>
</svg>
