<svg width="20.938889" height="19.922119" viewBox="0 0 20.9389 19.9221" fill="none" xmlns="http://www.w3.org/2000/svg" xmlns:xlink="http://www.w3.org/1999/xlink">
	<desc>
			Created with Pixso.
	</desc>
	<defs/>
	<path id="Vector" d="M15.26 1.15C13.09 0.06 13.04 0.47 15.08 2.46C21.48 8.66 19.75 18 12.09 18.76C6.13 19.35 1.9 15.68 2.01 10.15C2.09 5.76 4.97 1.16 9.72 0.61C10.68 0.5 10.7 0.47 10.28 0.24C9.61 -0.13 7.68 -0.07 6.51 0.35C4.97 0.9 3.41 2.03 2.2 3.5C-0.85 7.14 -0.52 12.87 1.88 16.27C4.88 20.51 14.92 21.24 18.44 17.47C22.86 12.75 21.17 4.13 15.26 1.15Z" fill="#006B99" fill-opacity="1.000000" fill-rule="nonzero"/>
</svg>
