<svg width="23.834869" height="18.952515" viewBox="0 0 23.8349 18.9525" fill="none" xmlns="http://www.w3.org/2000/svg" xmlns:xlink="http://www.w3.org/1999/xlink">
	<desc>
			Created with Pixso.
	</desc>
	<defs/>
	<path id="Vector" d="M23.62 10.05C22.59 3.71 18.18 -0.95 14.25 0.16C13.43 0.39 12.77 0.94 10.14 3.66C8.77 5.08 8.35 5.42 8.11 5.35C5.56 4.35 3.95 5.59 3.97 8.59C3.97 10.18 4.05 10.6 4.56 12.2C4.7 12.62 2.93 14.27 0.7 16.62C-1.09 18.26 0.79 18.76 3.49 17.89C8.13 16.39 7.41 16.45 9.02 17.36C11.65 18.84 15.08 19.38 16.64 18.57C16.95 18.42 17.12 18.09 17.09 17.73C17.09 17.72 16.95 16.19 16.95 16.2C19.08 15.35 21.65 14.48 22.87 13.6C24.08 12.71 23.91 11.86 23.62 10.05ZM3.47 16.44C3.3 16.44 5.34 14.19 5.48 14.04C5.51 14.23 5.95 14.93 6.57 15.35C6.59 15.43 3.75 16.44 3.47 16.44ZM19.25 13.03C18.38 13.23 15.64 14.32 14.67 14.86C13.97 15.25 13.94 15.3 14.03 15.8C14.38 17.7 14.47 17.59 12.82 17.17C9.08 16.2 4.75 8.87 6.46 6.39C6.95 5.69 7.62 6.58 7.66 7.99C7.71 9.49 9.03 11.95 9.97 12.56C10.51 12.92 10.79 12.48 10.65 12.2C8.85 8.87 9.14 7.98 9.27 7.48C9.27 7.48 13.24 3.46 13.57 3.1C14.77 1.82 15.83 1.76 16.99 2.88C19.14 4.97 20.8 8.29 21.22 11.33C21.31 12.14 20.66 12.71 19.25 13.03Z" fill="#006B99" fill-opacity="1.000000" fill-rule="nonzero"/>
</svg>
