<svg width="21.311554" height="20.267700" viewBox="0 0 21.3116 20.2677" fill="none" xmlns="http://www.w3.org/2000/svg" xmlns:xlink="http://www.w3.org/1999/xlink">
	<desc>
			Created with Pixso.
	</desc>
	<defs/>
	<path id="Vector" d="M7.38 1.09C5.63 2.58 5.22 2.77 3.49 2.96C1.25 3.19 1.29 3.18 1.37 3.63C1.46 4.11 1.58 5.92 1.63 6.4C-0.06 8.32 -0.1 8.24 0.05 9.32C0.11 9.75 0 13.8 0.28 17.55C0.35 18.49 0.66 18.92 1.53 19.37C3.21 20.22 4.6 19.72 3.27 18.76C2.08 17.88 1.96 17.51 1.84 14.05C1.79 12.93 1.7 11.4 1.61 10.64C1.27 7.63 2.3 8.88 2.26 9.13C2.17 9.81 2.51 10.34 4 11.11C4.9 11.58 8.25 13.73 9.59 14.18C11.57 14.86 12.38 13.63 17.05 10.44C17.9 9.87 18.47 9.35 18.79 8.84C19.6 7.59 19.69 13.92 18.89 16.62C18.35 18.42 18.2 18.47 13.07 18.6C7.82 18.73 5.32 19.06 5.45 19.44C5.76 20.37 17.4 20.58 19.24 19.71C20.05 19.32 20.94 17.32 21.11 16.35C21.36 14.92 21.37 12.72 21.15 9.78C20.99 7.67 20.78 7.21 19.62 6.17C19.21 5.81 19.18 5.12 19.55 3.74C19.69 3.21 19.87 2.35 18.59 2.35C17.31 2.35 15.26 2.44 14.91 2.44C14.41 2.13 12.31 0.93 11.95 0.57C11.63 0.31 9.66 -0.84 7.38 1.09ZM11.95 1.87C12.43 2.18 12.82 2.45 12.82 2.49C12.82 2.52 11.61 2.55 10.14 2.55C7.27 2.55 7.22 2.52 8.21 1.9C9.65 0.99 10.56 0.99 11.95 1.87ZM17.95 7.83C17.83 8.39 17.23 8.64 16.82 8.32C16.53 8.1 16.25 8.04 15.11 8.04C14.76 8.04 8.72 8.01 5.94 8.21C3.49 8.38 4.8 9.35 6.09 9.51C7.17 9.65 15.88 9.32 15.71 9.58C15.63 9.72 12.88 11.75 11.06 13.22C10.68 13.02 3.62 9.43 3.35 9.43C3.11 9.43 2.95 3.98 2.96 3.97C3 3.91 11.16 3.69 17.86 3.69C18.09 5.76 18.21 6.48 17.95 7.83ZM11.09 5.71C10.21 6.59 11.18 6.93 14.42 6.87C17.33 6.82 17.55 6.76 16.99 6.12C16.5 5.53 11.6 5.19 11.09 5.71Z" fill="#006B99" fill-opacity="1.000000" fill-rule="evenodd"/>
</svg>
