<svg width="18.914261" height="23.890381" viewBox="0 0 18.9143 23.8904" fill="none" xmlns="http://www.w3.org/2000/svg" xmlns:xlink="http://www.w3.org/1999/xlink">
	<desc>
			Created with Pixso.
	</desc>
	<defs/>
	<path id="Vector" d="M7.13 0.1C6.87 0.2 6.74 0.35 6.77 0.51C6.81 0.75 1.48 7.97 0.11 12.35C-0.31 13.71 0.37 13.9 3.48 13.31C5.37 12.94 5.3 12.56 4.05 16.08C3.12 18.67 2.44 20.84 2.12 22.16C1.68 23.91 2.6 24.83 4.86 22.46C5.84 21.44 8.05 19.15 13.23 13.25C17.62 8.24 17.61 8.38 14.14 8.24L12.01 8.16C13.01 7.1 16.76 3.05 17.91 2.11C19.06 1.15 19.42 0.75 17.88 0.54C16.09 0.27 10.04 0.17 8.27 0.01C7.86 -0.03 7.35 0.01 7.13 0.1ZM15.76 1.57L15 2.19C13.15 3.71 9.5 8.06 9.5 8.72C9.5 9.45 10.73 9.38 13.88 9.38C9.23 14.78 5.59 18.98 5.5 18.98C5.47 18.98 5.81 18.02 6.26 16.83C7.95 12.3 8.03 11.46 6.84 11.6C4.78 11.85 2.76 12.13 2.48 12.22C2.23 12.29 2.39 11.9 3.32 10.15C4.98 6.98 5.65 6.06 8.56 1.22C14.1 1.47 14.04 1.47 15.76 1.57Z" fill="#006B99" fill-opacity="1.000000" fill-rule="evenodd"/>
</svg>
